<svg width="32" height="32" viewBox="0 0 32 32" fill="none" xmlns="http://www.w3.org/2000/svg">
<path d="M15.9989 29.9978C25.3333 29.9978 29.9978 23.7303 29.9978 15.9989C29.9978 8.26751 25.3333 2 15.9989 2C6.66443 2 2 8.26751 2 15.9989C2 23.7303 6.66443 29.9978 15.9989 29.9978Z" fill="url(#paint0_radial_31_1614)"/>
<path d="M15.9989 29.9978C25.3333 29.9978 29.9978 23.7303 29.9978 15.9989C29.9978 8.26751 25.3333 2 15.9989 2C6.66443 2 2 8.26751 2 15.9989C2 23.7303 6.66443 29.9978 15.9989 29.9978Z" fill="url(#paint1_radial_31_1614)"/>
<path d="M15.9989 29.9978C25.3333 29.9978 29.9978 23.7303 29.9978 15.9989C29.9978 8.26751 25.3333 2 15.9989 2C6.66443 2 2 8.26751 2 15.9989C2 23.7303 6.66443 29.9978 15.9989 29.9978Z" fill="url(#paint2_radial_31_1614)" fill-opacity="0.6"/>
<path d="M15.9989 29.9978C25.3333 29.9978 29.9978 23.7303 29.9978 15.9989C29.9978 8.26751 25.3333 2 15.9989 2C6.66443 2 2 8.26751 2 15.9989C2 23.7303 6.66443 29.9978 15.9989 29.9978Z" fill="url(#paint3_radial_31_1614)"/>
<path d="M15.9989 29.9978C25.3333 29.9978 29.9978 23.7303 29.9978 15.9989C29.9978 8.26751 25.3333 2 15.9989 2C6.66443 2 2 8.26751 2 15.9989C2 23.7303 6.66443 29.9978 15.9989 29.9978Z" fill="url(#paint4_radial_31_1614)"/>
<path d="M15.9989 29.9978C25.3333 29.9978 29.9978 23.7303 29.9978 15.9989C29.9978 8.26751 25.3333 2 15.9989 2C6.66443 2 2 8.26751 2 15.9989C2 23.7303 6.66443 29.9978 15.9989 29.9978Z" fill="url(#paint5_radial_31_1614)"/>
<path d="M15.9989 29.9978C25.3333 29.9978 29.9978 23.7303 29.9978 15.9989C29.9978 8.26751 25.3333 2 15.9989 2C6.66443 2 2 8.26751 2 15.9989C2 23.7303 6.66443 29.9978 15.9989 29.9978Z" fill="url(#paint6_radial_31_1614)"/>
<path d="M15.9989 29.9978C25.3333 29.9978 29.9978 23.7303 29.9978 15.9989C29.9978 8.26751 25.3333 2 15.9989 2C6.66443 2 2 8.26751 2 15.9989C2 23.7303 6.66443 29.9978 15.9989 29.9978Z" fill="url(#paint7_radial_31_1614)"/>
<path d="M15.9989 29.9978C25.3333 29.9978 29.9978 23.7303 29.9978 15.9989C29.9978 8.26751 25.3333 2 15.9989 2C6.66443 2 2 8.26751 2 15.9989C2 23.7303 6.66443 29.9978 15.9989 29.9978Z" fill="url(#paint8_radial_31_1614)"/>
<path d="M15.9989 29.9978C25.3333 29.9978 29.9978 23.7303 29.9978 15.9989C29.9978 8.26751 25.3333 2 15.9989 2C6.66443 2 2 8.26751 2 15.9989C2 23.7303 6.66443 29.9978 15.9989 29.9978Z" fill="url(#paint9_radial_31_1614)"/>
<path fill-rule="evenodd" clip-rule="evenodd" d="M15 16.5C15 18.9853 12.9853 21 10.5 21C8.01472 21 6 18.9853 6 16.5C6 14.0147 8.01472 12 10.5 12C12.9853 12 15 14.0147 15 16.5ZM25.96 16.48C25.96 18.9542 23.9542 20.96 21.48 20.96C19.0058 20.96 17 18.9542 17 16.48C17 14.0058 19.0058 12 21.48 12C23.9542 12 25.96 14.0058 25.96 16.48Z" fill="white"/>
<path d="M7 15.88C7 13.74 8.74 12 10.88 12C13.02 12 14.76 13.74 14.76 15.88C14.76 18.02 13.02 19.76 10.88 19.76C8.74 19.76 7 18.02 7 15.88Z" fill="url(#paint10_linear_31_1614)"/>
<path d="M17 15.88C17 13.74 18.74 12 20.88 12C23.02 12 24.76 13.74 24.76 15.88C24.76 18.02 23.02 19.76 20.88 19.76C18.74 19.76 17 18.02 17 15.88Z" fill="url(#paint11_linear_31_1614)"/>
<path d="M13.8436 14.0716C14.2117 14.8666 13.908 15.6999 13.1626 15.9369C12.4172 16.1739 11.5245 15.7228 11.1564 14.9278C10.7883 14.1328 11.092 13.2995 11.8374 13.0625C12.5828 12.8255 13.4755 13.2842 13.8436 14.0716Z" fill="url(#paint12_linear_31_1614)"/>
<path d="M23.8436 14.0716C24.2117 14.8666 23.908 15.6999 23.1626 15.9369C22.4172 16.1739 21.5245 15.7228 21.1564 14.9278C20.7883 14.1328 21.092 13.2995 21.8374 13.0625C22.5736 12.8255 23.4755 13.2842 23.8436 14.0716Z" fill="url(#paint13_linear_31_1614)"/>
<path fill-rule="evenodd" clip-rule="evenodd" d="M9.88364 7.3966L9.88406 7.39411L9.88135 7.40785C9.8785 7.42172 9.87336 7.44534 9.86537 7.47732C9.84934 7.54143 9.8221 7.63813 9.77937 7.75647C9.69335 7.99466 9.54798 8.31106 9.31252 8.625C8.85826 9.23069 8.03752 9.875 6.50002 9.875C6.15485 9.875 5.87502 10.1548 5.87502 10.5C5.87502 10.8452 6.15485 11.125 6.50002 11.125C8.46253 11.125 9.64179 10.2693 10.3125 9.375C10.6396 8.93894 10.8379 8.50534 10.9551 8.18103C11.0139 8.01812 11.0531 7.88044 11.078 7.78049C11.0906 7.73044 11.0996 7.68961 11.1058 7.65953C11.1088 7.64449 11.1112 7.63211 11.113 7.62259L11.1152 7.61047L11.116 7.60605L11.1163 7.60426C11.1166 7.60198 11.1165 7.60275 11.1165 7.60275C11.1733 7.26227 10.9433 6.94025 10.6028 6.8835C10.2633 6.82693 9.94227 7.05537 9.88406 7.39411" fill="url(#paint14_linear_31_1614)"/>
<path fill-rule="evenodd" clip-rule="evenodd" d="M9.88364 7.3966L9.88406 7.39411L9.88135 7.40785C9.8785 7.42172 9.87336 7.44534 9.86537 7.47732C9.84934 7.54143 9.8221 7.63813 9.77937 7.75647C9.69335 7.99466 9.54798 8.31106 9.31252 8.625C8.85826 9.23069 8.03752 9.875 6.50002 9.875C6.15485 9.875 5.87502 10.1548 5.87502 10.5C5.87502 10.8452 6.15485 11.125 6.50002 11.125C8.46253 11.125 9.64179 10.2693 10.3125 9.375C10.6396 8.93894 10.8379 8.50534 10.9551 8.18103C11.0139 8.01812 11.0531 7.88044 11.078 7.78049C11.0906 7.73044 11.0996 7.68961 11.1058 7.65953C11.1088 7.64449 11.1112 7.63211 11.113 7.62259L11.1152 7.61047L11.116 7.60605L11.1163 7.60426C11.1166 7.60198 11.1165 7.60275 11.1165 7.60275C11.1733 7.26227 10.9433 6.94025 10.6028 6.8835C10.2633 6.82693 9.94227 7.05537 9.88406 7.39411" fill="url(#paint15_radial_31_1614)"/>
<path fill-rule="evenodd" clip-rule="evenodd" d="M22.1164 7.3966L22.1159 7.39411L22.1186 7.40785C22.1215 7.42172 22.1266 7.44534 22.1346 7.47732C22.1507 7.54143 22.1779 7.63813 22.2206 7.75647C22.3066 7.99466 22.452 8.31106 22.6875 8.625C23.1417 9.23069 23.9625 9.875 25.5 9.875C25.8452 9.875 26.125 10.1548 26.125 10.5C26.125 10.8452 25.8452 11.125 25.5 11.125C23.5375 11.125 22.3582 10.2693 21.6875 9.375C21.3604 8.93894 21.1621 8.50534 21.0449 8.18103C20.9861 8.01812 20.9469 7.88044 20.922 7.78049C20.9094 7.73044 20.9004 7.68961 20.8942 7.65953C20.8912 7.64449 20.8888 7.63211 20.887 7.62259L20.8848 7.61047L20.884 7.60605L20.8837 7.60426C20.8834 7.60198 20.8835 7.60275 20.8835 7.60275C20.8267 7.26227 21.0567 6.94025 21.3972 6.8835C21.7367 6.82693 22.0577 7.05537 22.1159 7.39411" fill="url(#paint16_radial_31_1614)"/>
<path fill-rule="evenodd" clip-rule="evenodd" d="M14.881 25.4731C14.6262 25.9481 14.038 26.1371 13.5528 25.8944C13.0588 25.6474 12.8586 25.0468 13.1055 24.5528L13.1061 24.5517L13.1066 24.5506L13.1078 24.5484L13.1102 24.5436L13.1158 24.5329C13.1198 24.5252 13.1244 24.5165 13.1297 24.5069C13.1403 24.4876 13.1536 24.4645 13.1696 24.4381C13.2016 24.3853 13.2451 24.319 13.3015 24.2437C13.414 24.0938 13.5806 23.9049 13.8128 23.7191C14.2898 23.3375 15.0071 23 16 23C16.9929 23 17.7101 23.3375 18.1872 23.7191C18.4193 23.9049 18.5859 24.0938 18.6984 24.2437C18.7548 24.319 18.7983 24.3853 18.8303 24.4381C18.8464 24.4645 18.8596 24.4876 18.8702 24.5069C18.8755 24.5165 18.8802 24.5252 18.8842 24.5329L18.8898 24.5436L18.8922 24.5484L18.8933 24.5506L18.8939 24.5517L18.8944 24.5528C19.1414 25.0468 18.9412 25.6474 18.4472 25.8944C17.9619 26.1371 17.3737 25.9481 17.119 25.4731C17.1159 25.4682 17.1091 25.458 17.0984 25.4437C17.0703 25.4062 17.0181 25.3451 16.9378 25.2809C16.7898 25.1625 16.5071 25 16 25C15.4929 25 15.2101 25.1625 15.0622 25.2809C14.9818 25.3451 14.9297 25.4062 14.9015 25.4437C14.8909 25.458 14.8841 25.4682 14.881 25.4731Z" fill="url(#paint17_radial_31_1614)"/>
<path fill-rule="evenodd" clip-rule="evenodd" d="M14.881 25.4731C14.6262 25.9481 14.038 26.1371 13.5528 25.8944C13.0588 25.6474 12.8586 25.0468 13.1055 24.5528L13.1061 24.5517L13.1066 24.5506L13.1078 24.5484L13.1102 24.5436L13.1158 24.5329C13.1198 24.5252 13.1244 24.5165 13.1297 24.5069C13.1403 24.4876 13.1536 24.4645 13.1696 24.4381C13.2016 24.3853 13.2451 24.319 13.3015 24.2437C13.414 24.0938 13.5806 23.9049 13.8128 23.7191C14.2898 23.3375 15.0071 23 16 23C16.9929 23 17.7101 23.3375 18.1872 23.7191C18.4193 23.9049 18.5859 24.0938 18.6984 24.2437C18.7548 24.319 18.7983 24.3853 18.8303 24.4381C18.8464 24.4645 18.8596 24.4876 18.8702 24.5069C18.8755 24.5165 18.8802 24.5252 18.8842 24.5329L18.8898 24.5436L18.8922 24.5484L18.8933 24.5506L18.8939 24.5517L18.8944 24.5528C19.1414 25.0468 18.9412 25.6474 18.4472 25.8944C17.9619 26.1371 17.3737 25.9481 17.119 25.4731C17.1159 25.4682 17.1091 25.458 17.0984 25.4437C17.0703 25.4062 17.0181 25.3451 16.9378 25.2809C16.7898 25.1625 16.5071 25 16 25C15.4929 25 15.2101 25.1625 15.0622 25.2809C14.9818 25.3451 14.9297 25.4062 14.9015 25.4437C14.8909 25.458 14.8841 25.4682 14.881 25.4731Z" fill="url(#paint18_radial_31_1614)"/>
<path fill-rule="evenodd" clip-rule="evenodd" d="M14.881 25.4731C14.6262 25.9481 14.038 26.1371 13.5528 25.8944C13.0588 25.6474 12.8586 25.0468 13.1055 24.5528L13.1061 24.5517L13.1066 24.5506L13.1078 24.5484L13.1102 24.5436L13.1158 24.5329C13.1198 24.5252 13.1244 24.5165 13.1297 24.5069C13.1403 24.4876 13.1536 24.4645 13.1696 24.4381C13.2016 24.3853 13.2451 24.319 13.3015 24.2437C13.414 24.0938 13.5806 23.9049 13.8128 23.7191C14.2898 23.3375 15.0071 23 16 23C16.9929 23 17.7101 23.3375 18.1872 23.7191C18.4193 23.9049 18.5859 24.0938 18.6984 24.2437C18.7548 24.319 18.7983 24.3853 18.8303 24.4381C18.8464 24.4645 18.8596 24.4876 18.8702 24.5069C18.8755 24.5165 18.8802 24.5252 18.8842 24.5329L18.8898 24.5436L18.8922 24.5484L18.8933 24.5506L18.8939 24.5517L18.8944 24.5528C19.1414 25.0468 18.9412 25.6474 18.4472 25.8944C17.9619 26.1371 17.3737 25.9481 17.119 25.4731C17.1159 25.4682 17.1091 25.458 17.0984 25.4437C17.0703 25.4062 17.0181 25.3451 16.9378 25.2809C16.7898 25.1625 16.5071 25 16 25C15.4929 25 15.2101 25.1625 15.0622 25.2809C14.9818 25.3451 14.9297 25.4062 14.9015 25.4437C14.8909 25.458 14.8841 25.4682 14.881 25.4731Z" fill="url(#paint19_radial_31_1614)"/>
<path fill-rule="evenodd" clip-rule="evenodd" d="M14.881 25.4731C14.6262 25.9481 14.038 26.1371 13.5528 25.8944C13.0588 25.6474 12.8586 25.0468 13.1055 24.5528L13.1061 24.5517L13.1066 24.5506L13.1078 24.5484L13.1102 24.5436L13.1158 24.5329C13.1198 24.5252 13.1244 24.5165 13.1297 24.5069C13.1403 24.4876 13.1536 24.4645 13.1696 24.4381C13.2016 24.3853 13.2451 24.319 13.3015 24.2437C13.414 24.0938 13.5806 23.9049 13.8128 23.7191C14.2898 23.3375 15.0071 23 16 23C16.9929 23 17.7101 23.3375 18.1872 23.7191C18.4193 23.9049 18.5859 24.0938 18.6984 24.2437C18.7548 24.319 18.7983 24.3853 18.8303 24.4381C18.8464 24.4645 18.8596 24.4876 18.8702 24.5069C18.8755 24.5165 18.8802 24.5252 18.8842 24.5329L18.8898 24.5436L18.8922 24.5484L18.8933 24.5506L18.8939 24.5517L18.8944 24.5528C19.1414 25.0468 18.9412 25.6474 18.4472 25.8944C17.9619 26.1371 17.3737 25.9481 17.119 25.4731C17.1159 25.4682 17.1091 25.458 17.0984 25.4437C17.0703 25.4062 17.0181 25.3451 16.9378 25.2809C16.7898 25.1625 16.5071 25 16 25C15.4929 25 15.2101 25.1625 15.0622 25.2809C14.9818 25.3451 14.9297 25.4062 14.9015 25.4437C14.8909 25.458 14.8841 25.4682 14.881 25.4731Z" fill="url(#paint20_radial_31_1614)"/>
<defs>
<radialGradient id="paint0_radial_31_1614" cx="0" cy="0" r="1" gradientUnits="userSpaceOnUse" gradientTransform="translate(25.5 9) rotate(132.839) scale(37.5033)">
<stop stop-color="#FFF478"/>
<stop offset="0.474827" stop-color="#FFB02E"/>
<stop offset="1" stop-color="#F70A8D"/>
</radialGradient>
<radialGradient id="paint1_radial_31_1614" cx="0" cy="0" r="1" gradientUnits="userSpaceOnUse" gradientTransform="translate(16 12.5) rotate(101.31) scale(17.8466 22.8581)">
<stop offset="0.787821" stop-color="#F59639" stop-opacity="0"/>
<stop offset="0.972509" stop-color="#FF7DCE"/>
</radialGradient>
<radialGradient id="paint2_radial_31_1614" cx="0" cy="0" r="1" gradientUnits="userSpaceOnUse" gradientTransform="translate(18 14) rotate(135) scale(41.0122)">
<stop offset="0.314853" stop-opacity="0"/>
<stop offset="1"/>
</radialGradient>
<radialGradient id="paint3_radial_31_1614" cx="0" cy="0" r="1" gradientUnits="userSpaceOnUse" gradientTransform="translate(16 17) rotate(77.692) scale(28.1469)">
<stop offset="0.507903" stop-color="#7D6133" stop-opacity="0"/>
<stop offset="1" stop-color="#715B32"/>
</radialGradient>
<radialGradient id="paint4_radial_31_1614" cx="0" cy="0" r="1" gradientUnits="userSpaceOnUse" gradientTransform="translate(16.5 16.5) rotate(55.7131) scale(13.3135 9.65032)">
<stop stop-color="#FFB849"/>
<stop offset="1" stop-color="#FFB847" stop-opacity="0"/>
</radialGradient>
<radialGradient id="paint5_radial_31_1614" cx="0" cy="0" r="1" gradientUnits="userSpaceOnUse" gradientTransform="translate(20.5 18) rotate(9.86581) scale(11.6726)">
<stop stop-color="#FFA64B"/>
<stop offset="0.900412" stop-color="#FFAE46" stop-opacity="0"/>
</radialGradient>
<radialGradient id="paint6_radial_31_1614" cx="0" cy="0" r="1" gradientUnits="userSpaceOnUse" gradientTransform="translate(17.5 15) rotate(43.9708) scale(59.0529)">
<stop offset="0.185425" stop-opacity="0"/>
<stop offset="1" stop-opacity="0.4"/>
</radialGradient>
<radialGradient id="paint7_radial_31_1614" cx="0" cy="0" r="1" gradientUnits="userSpaceOnUse" gradientTransform="translate(22.5403 9.75965) rotate(131.348) scale(1.27879 2.85712)">
<stop offset="0.09375" stop-color="#D4901B"/>
<stop offset="1" stop-color="#DEA22D" stop-opacity="0"/>
</radialGradient>
<radialGradient id="paint8_radial_31_1614" cx="0" cy="0" r="1" gradientUnits="userSpaceOnUse" gradientTransform="translate(24.6471 10.7235) rotate(97.554) scale(1.27439 1.49847)">
<stop offset="0.09375" stop-color="#D4901B"/>
<stop offset="1" stop-color="#DEA22D" stop-opacity="0"/>
</radialGradient>
<radialGradient id="paint9_radial_31_1614" cx="0" cy="0" r="1" gradientUnits="userSpaceOnUse" gradientTransform="translate(9.53274 10.776) rotate(-4.08562) scale(3.72444)">
<stop stop-color="#D59A13"/>
<stop offset="1" stop-color="#D59A13" stop-opacity="0"/>
</radialGradient>
<linearGradient id="paint10_linear_31_1614" x1="12.3723" y1="12" x2="10.88" y2="19.76" gradientUnits="userSpaceOnUse">
<stop stop-color="#553B3E"/>
<stop offset="1" stop-color="#3D2432"/>
</linearGradient>
<linearGradient id="paint11_linear_31_1614" x1="22.3723" y1="12" x2="20.88" y2="19.76" gradientUnits="userSpaceOnUse">
<stop stop-color="#553B3E"/>
<stop offset="1" stop-color="#3D2432"/>
</linearGradient>
<linearGradient id="paint12_linear_31_1614" x1="11.7832" y1="12.948" x2="12.6291" y2="15.5977" gradientUnits="userSpaceOnUse">
<stop offset="0.00558659" stop-color="white"/>
<stop offset="1" stop-color="white" stop-opacity="0"/>
</linearGradient>
<linearGradient id="paint13_linear_31_1614" x1="21.7782" y1="12.9482" x2="22.6241" y2="15.5978" gradientUnits="userSpaceOnUse">
<stop offset="0.00558659" stop-color="white"/>
<stop offset="1" stop-color="white" stop-opacity="0"/>
</linearGradient>
<linearGradient id="paint14_linear_31_1614" x1="9.50002" y1="7" x2="9.50002" y2="8.5" gradientUnits="userSpaceOnUse">
<stop offset="0.0299084" stop-color="#524049"/>
<stop offset="1" stop-color="#4A2C42"/>
</linearGradient>
<radialGradient id="paint15_radial_31_1614" cx="0" cy="0" r="1" gradientUnits="userSpaceOnUse" gradientTransform="translate(7.00003 7) rotate(54.4623) scale(4.30116)">
<stop offset="0.541667" stop-color="#493032"/>
<stop offset="0.806723" stop-color="#5E445A"/>
<stop offset="0.955326" stop-color="#4A2C42"/>
</radialGradient>
<radialGradient id="paint16_radial_31_1614" cx="0" cy="0" r="1" gradientUnits="userSpaceOnUse" gradientTransform="translate(25 7) rotate(125.538) scale(4.30116)">
<stop stop-color="#C2B4B5"/>
<stop offset="0.887405" stop-color="#462B45"/>
<stop offset="1" stop-color="#4A2C42"/>
</radialGradient>
<radialGradient id="paint17_radial_31_1614" cx="0" cy="0" r="1" gradientUnits="userSpaceOnUse" gradientTransform="translate(16 26.6928) rotate(-90) scale(4.07971 4.07259)">
<stop offset="0.479167" stop-color="#5B2666"/>
<stop offset="0.686742" stop-color="#533A4E"/>
<stop offset="0.817708" stop-color="#533A4E"/>
<stop offset="0.959686" stop-color="#53261F"/>
</radialGradient>
<radialGradient id="paint18_radial_31_1614" cx="0" cy="0" r="1" gradientUnits="userSpaceOnUse" gradientTransform="translate(13.619 25.8247) rotate(28.4905) scale(0.779475 0.894524)">
<stop stop-color="#52265D"/>
<stop offset="1" stop-color="#52265D" stop-opacity="0"/>
</radialGradient>
<radialGradient id="paint19_radial_31_1614" cx="0" cy="0" r="1" gradientUnits="userSpaceOnUse" gradientTransform="translate(12.9998 25.0357) rotate(39.0738) scale(0.511293 1.38653)">
<stop stop-color="#4E3130"/>
<stop offset="1" stop-color="#4E3130" stop-opacity="0"/>
</radialGradient>
<radialGradient id="paint20_radial_31_1614" cx="0" cy="0" r="1" gradientUnits="userSpaceOnUse" gradientTransform="translate(18.7532 24.9524) rotate(127.783) scale(0.906944 0.878752)">
<stop stop-color="#694F5B"/>
<stop offset="1" stop-color="#59414E" stop-opacity="0"/>
</radialGradient>
</defs>
</svg>
